:FULLY-SPECIFIED
:FORCE-ALL-JOINTS-BE-3DOF
:DEGREES
1427
root -3.17511 15.1898 13.7003 458.066 14.0662 461.006
lfemur -22.2662 11.5713 -16.2577
ltibia 78.4857 0 0
lfoot -21.2103 22.6082 0
ltoes -17.9299 0 0
rfemur -43.1301 0.23041 8.11625
rtibia 45.9799 0 0
rfoot 3.74481 0.70326 0
rtoes -11.1957 0 0
lowerback 15.537 0.975395 -2.2021
upperback -1.35536 1.27234 2.7842
thorax -10.0848 0.66408 3.93584
lowerneck -4.29225 1.01572 -2.6525
upperneck 9.19921 1.36532 -2.93038
head 4.64475 0.527553 -0.761452
lclavicle -1.53361e-16 -2.86372e-14 0
lhumerus -23.0814 -54.485 99.6695
lradius 119.901 0 0
lwrist 26.9427 0 0
lhand -27.8548 61.2156 0
lfingers 7.12502 0 0
lthumb -1.24567 -187.866 0
rclavicle -1.53361e-16 -2.86372e-14 0
rhumerus -0.723794 34.0947 -68.6136
rradius 108.048 0 0
rwrist -23.2421 0 0
rhand -6.63341 -26.9779 0
rfingers 7.12502 0 0
rthumb 19.1223 -65.2962 0
1428
root -3.19385 15.1907 13.7808 459.258 13.9307 462.1
lfemur -22.5207 11.6325 -16.2451
ltibia 78.7257 0 0
lfoot -21.1124 22.5852 0
ltoes -17.9516 0 0
rfemur -43.1391 0.238557 8.23436
rtibia 46.2071 0 0
rfoot 3.40602 0.618213 0
rtoes -11.451 0 0
lowerback 15.5696 0.984502 -2.10044
upperback -1.35526 1.30238 2.80038
thorax -10.1046 0.672936 3.88883
lowerneck -4.28633 1.12544 -2.56369
upperneck 9.12393 1.51399 -3.03484
head 4.62155 0.599982 -0.801403
lclavicle -4.42408e-16 -2.88517e-14 0
lhumerus -22.745 -54.6241 99.4242
lradius 119.953 0 0
lwrist 26.7376 0 0
lhand -27.8324 61.2736 0
lfingers 7.12502 0 0
lthumb -1.22402 -186.87 0
rclavicle -4.42408e-16 -2.88517e-14 0
rhumerus -1.28793 34.24 -68.8275
rradius 108.076 0 0
rwrist -23.5544 0 0
rhand -6.38152 -26.9848 0
rfingers 7.12502 0 0
rthumb 19.3642 -65.1558 0
1429
root -3.21257 15.1916 13.8612 460.45 13.7946 463.192
lfemur -22.7752 11.6937 -16.2324
ltibia 78.9653 0 0
lfoot -21.0145 22.5623 0
ltoes -17.973 0 0
rfemur -43.148 0.246477 8.35252
rtibia 46.4346 0 0
rfoot 3.06722 0.532772 0
rtoes -11.7063 0 0
lowerback 15.6021 0.99359 -1.99889
upperback -1.35517 1.33237 2.81655
thorax -10.1244 0.681776 3.84187
lowerneck -4.28043 1.23503 -2.47496
upperneck 9.04861 1.66247 -3.13914
head 4.59831 0.672324 -0.841293
lclavicle -7.31866e-16 -2.90649e-14 0
lhumerus -22.4083 -54.762 99.1787
lradius 120.004 0 0
lwrist 26.5322 0 0
lhand -27.81 61.3312 0
lfingers 7.12502 0 0
lthumb -1.20241 -185.873 0
rclavicle -7.31866e-16 -2.90649e-14 0
rhumerus -1.85235 34.385 -69.0416
rradius 108.105 0 0
rwrist -23.8673 0 0
rhand -6.12987 -26.9921 0
rfingers 7.12502 0 0
rthumb 19.6058 -65.0143 0
1430
root -3.23126 15.1925 13.9415 461.64 13.6579 464.284
lfemur -23.0298 11.755 -16.2198
ltibia 79.2043 0 0
lfoot -20.9167 22.5394 0
ltoes -17.994 0 0
rfemur -43.1567 0.254171 8.4707
rtibia 46.6624 0 0
rfoot 2.72845 0.446947 0
rtoes -11.9616 0 0
lowerback 15.6345 1.00266 -1.89746
upperback -1.35509 1.36231 2.83269
thorax -10.1442 0.6906 3.79497
lowerneck -4.27455 1.34446 -2.38633
upperneck 8.97326 1.81075 -3.24326
head 4.57506 0.744567 -0.881117
lclavicle -1.02171e-15 -2.92769e-14 0
lhumerus -22.0713 -54.8989 98.9331
lradius 120.055 0 0
lwrist 26.3264 0 0
lhand -27.7877 61.3884 0
lfingers 7.12502 0 0
lthumb -1.18082 -184.874 0
rclavicle -1.02171e-15 -2.92769e-14 0
rhumerus -2.41697 34.5296 -69.256
rradius 108.132 0 0
rwrist -24.1806 0 0
rhand -5.87849 -26.9997 0
rfingers 7.12502 0 0
rthumb 19.8472 -64.8716 0
1431
root -3.24993 15.1934 14.0217 462.829 13.5206 465.374
lfemur -23.2843 11.8163 -16.2072
ltibia 79.4428 0 0
lfoot -20.8188 22.5167 0
ltoes -18.0145 0 0
rfemur -43.1652 0.261636 8.58889
rtibia 46.8904 0 0
rfoot 2.38976 0.36075 0
rtoes -12.2167 0 0
lowerback 15.6669 1.0117 -1.79617
upperback -1.35501 1.39219 2.84881
thorax -10.1639 0.699406 3.74814
lowerneck -4.2687 1.45372 -2.2978
upperneck 8.89791 1.9588 -3.34719
head 4.55178 0.816702 -0.920869
lclavicle -1.31193e-15 -2.94875e-14 0
lhumerus -21.734 -55.0345 98.6874
lradius 120.103 0 0
lwrist 26.1203 0 0
lhand -27.7654 61.4452 0
lfingers 7.12502 0 0
lthumb -1.15927 -183.875 0
rclavicle -1.31193e-15 -2.94875e-14 0
rhumerus -2.98173 34.6738 -69.4706
rradius 108.159 0 0
rwrist -24.4943 0 0
rhand -5.62741 -27.0077 0
rfingers 7.12502 0 0
rthumb 20.0883 -64.7278 0
1432
root -3.26858 15.1943 14.1017 464.017 13.3828 466.462
lfemur -23.5388 11.8775 -16.1945
ltibia 79.6808 0 0
lfoot -20.721 22.494 0
ltoes -18.0347 0 0
rfemur -43.1735 0.268871 8.70706
rtibia 47.1186 0 0
rfoot 2.0512 0.27419 0
rtoes -12.4717 0 0
lowerback 15.6992 1.02072 -1.69502
upperback -1.35493 1.42201 2.8649
thorax -10.1836 0.708193 3.70137
lowerneck -4.26287 1.56281 -2.20939
upperneck 8.82254 2.10661 -3.45092
head 4.52848 0.88872 -0.960546
lclavicle -1.60248e-15 -2.96969e-14 0
lhumerus -21.3965 -55.169 98.4417
lradius 120.151 0 0
lwrist 25.9139 0 0
lhand -27.7431 61.5016 0
lfingers 7.12502 0 0
lthumb -1.13777 -182.874 0
rclavicle -1.60248e-15 -2.96969e-14 0
rhumerus -3.54655 34.8176 -69.6855
rradius 108.186 0 0
rwrist -24.8083 0 0
rhand -5.37668 -27.016 0
rfingers 7.12502 0 0
rthumb 20.3291 -64.5829 0
1433
root -3.2872 15.1952 14.1816 465.203 13.2444 467.55
lfemur -23.7931 11.9388 -16.1818
ltibia 79.918 0 0
lfoot -20.6233 22.4715 0
ltoes -18.0546 0 0
rfemur -43.1816 0.275875 8.82521
rtibia 47.3469 0 0
rfoot 1.71283 0.18728 0
rtoes -12.7265 0 0
lowerback 15.7314 1.02971 -1.59403
upperback -1.35486 1.45176 2.88097
thorax -10.2032 0.716959 3.65468
lowerneck -4.25707 1.67169 -2.12111
upperneck 8.74719 2.25414 -3.55442
head 4.50517 0.960609 -1.00014
lclavicle -1.89335e-15 -2.99048e-14 0
lhumerus -21.0589 -55.3023 98.1959
lradius 120.198 0 0
lwrist 25.7071 0 0
lhand -27.7209 61.5576 0
lfingers 7.12502 0 0
lthumb -1.11631 -181.872 0
rclavicle -1.89335e-15 -2.99048e-14 0
rhumerus -4.11136 34.961 -69.9004
rradius 108.213 0 0
rwrist -25.1227 0 0
rhand -5.12632 -27.0246 0
rfingers 7.12502 0 0
rthumb 20.5696 -64.4371 0
1434
root -3.30578 15.1961 14.2613 466.387 13.1054 468.635
lfemur -24.0473 12.0001 -16.1692
ltibia 80.1547 0 0
lfoot -20.5256 22.4491 0
ltoes -18.074 0 0
rfemur -43.1896 0.282646 8.94329
rtibia 47.5754 0 0
rfoot 1.3747 0.10003 0
rtoes -12.9812 0 0
lowerback 15.7635 1.03867 -1.49322
upperback -1.3548 1.48144 2.897
thorax -10.2228 0.725702 3.60808
lowerneck -4.25129 1.78037 -2.03297
upperneck 8.67184 2.40139 -3.6577
head 4.48185 1.03236 -1.03965
lclavicle -2.18452e-15 -3.01113e-14 0
lhumerus -20.7213 -55.4343 97.9502
lradius 120.243 0 0
lwrist 25.5001 0 0
lhand -27.6987 61.6131 0
lfingers 7.12502 0 0
lthumb -1.09491 -180.869 0
rclavicle -2.18452e-15 -3.01113e-14 0
rhumerus -4.67609 35.104 -70.1156
rradius 108.239 0 0
rwrist -25.4373 0 0
rhand -4.87637 -27.0336 0
rfingers 7.12502 0 0
rthumb 20.8096 -64.2904 0
1435
root -3.32434 15.197 14.3408 467.57 12.9659 469.719
lfemur -24.3013 12.0613 -16.1564
ltibia 80.3906 0 0
lfoot -20.428 22.4268 0
ltoes -18.0931 0 0
rfemur -43.1973 0.289183 9.06131
rtibia 47.8039 0 0
rfoot 1.03685 0.0124504 0
rtoes -13.2356 0 0
lowerback 15.7954 1.0476 -1.39259
upperback -1.35474 1.51105 2.913
thorax -10.2424 0.734422 3.56156
lowerneck -4.24554 1.88882 -1.94499
upperneck 8.59652 2.54833 -3.76074
head 4.45852 1.10397 -1.07907
lclavicle -2.47595e-15 -3.03163e-14 0
lhumerus -20.3837 -55.565 97.7045
lradius 120.287 0 0
lwrist 25.2927 0 0
lhand -27.6766 61.6682 0
lfingers 7.12502 0 0
lthumb -1.07356 -179.865 0
rclavicle -2.47595e-15 -3.03163e-14 0
rhumerus -5.24065 35.2464 -70.3308
rradius 108.265 0 0
rwrist -25.7522 0 0
rhand -4.62686 -27.0429 0
rfingers 7.12502 0 0
rthumb 21.0492 -64.1428 0
1436
root -3.34286 15.198 14.4201 468.75 12.8258 470.802
lfemur -24.5552 12.1226 -16.1437
ltibia 80.6258 0 0
lfoot -20.3305 22.4046 0
ltoes -18.1117 0 0
rfemur -43.2049 0.295486 9.17923
rtibia 48.0325 0 0
rfoot 0.699337 -0.0754479 0
rtoes -13.4897 0 0
lowerback 15.8273 1.0565 -1.29216
upperback -1.35468 1.54057 2.92898
thorax -10.2619 0.743117 3.51514
lowerneck -4.23981 1.99702 -1.85717
upperneck 8.52122 2.69494 -3.86351
head 4.43518 1.17541 -1.11839
lclavicle -2.76764e-15 -3.05198e-14 0
lhumerus -20.0462 -55.6944 97.4589
lradius 120.33 0 0
lwrist 25.0851 0 0
lhand -27.6546 61.7228 0
lfingers 7.12502 0 0
lthumb -1.05227 -178.86 0
rclavicle -2.76764e-15 -3.05198e-14 0
rhumerus -5.80498 35.3884 -70.5461
rradius 108.29 0 0
rwrist -26.0672 0 0
rhand -4.37783 -27.0525 0
rfingers 7.12502 0 0
rthumb 21.2884 -63.9944 0
1437
root -3.36134 15.1989 14.4993 469.929 12.6852 471.882
lfemur -24.8087 12.1838 -16.1309
ltibia 80.8603 0 0
lfoot -20.2331 22.3825 0
ltoes -18.13 0 0
rfemur -43.2122 0.301552 9.29705
rtibia 48.261 0 0
rfoot 0.362214 -0.163654 0
rtoes -13.7436 0 0
lowerback 15.8591 1.06537 -1.19193
upperback -1.35463 1.57001 2.94491
thorax -10.2813 0.751785 3.46881
lowerneck -4.23412 2.10497 -1.76952
upperneck 8.44597 2.8412 -3.96602
head 4.41184 1.24669 -1.15761
lclavicle -3.05955e-15 -3.07218e-14 0
lhumerus -19.7088 -55.8224 97.2134
lradius 120.372 0 0
lwrist 24.8772 0 0
lhand -27.6326 61.777 0
lfingers 7.12502 0 0
lthumb -1.03105 -177.854 0
rclavicle -3.05955e-15 -3.07218e-14 0
rhumerus -6.369 35.5298 -70.7614
rradius 108.315 0 0
rwrist -26.3823 0 0
rhand -4.12931 -27.0624 0
rfingers 7.12502 0 0
rthumb 21.5271 -63.8452 0
1438
root -3.37979 15.1998 14.5783 471.105 12.5441 472.96
lfemur -25.062 12.2449 -16.1181
ltibia 81.0939 0 0
lfoot -20.1358 22.3606 0
ltoes -18.1479 0 0
rfemur -43.2193 0.307381 9.41473
rtibia 48.4895 0 0
rfoot 0.0255304 -0.252157 0
rtoes -13.9972 0 0
lowerback 15.8908 1.07421 -1.09194
upperback -1.35458 1.59936 2.96081
thorax -10.3007 0.760426 3.4226
lowerneck -4.22844 2.21265 -1.68206
upperneck 8.37077 2.98709 -4.06825
head 4.38849 1.31779 -1.19673
lclavicle -3.35165e-15 -3.09223e-14 0
lhumerus -19.3716 -55.949 96.968
lradius 120.412 0 0
lwrist 24.6691 0 0
lhand -27.6107 61.8307 0
lfingers 7.12502 0 0
lthumb -1.0099 -176.847 0
rclavicle -3.35165e-15 -3.09223e-14 0
rhumerus -6.93265 35.6707 -70.9767
rradius 108.34 0 0
rwrist -26.6976 0 0
rhand -3.88133 -27.0726 0
rfingers 7.12502 0 0
rthumb 21.7652 -63.6954 0
1439
root -3.3982 15.2007 14.6571 472.279 12.4024 474.036
lfemur -25.3149 12.306 -16.1053
ltibia 81.3267 0 0
lfoot -20.0386 22.3388 0
ltoes -18.1654 0 0
rfemur -43.2262 0.31297 9.53226
rtibia 48.7179 0 0
rfoot -0.310663 -0.340946 0
rtoes -14.2503 0 0
lowerback 15.9223 1.083 -0.992171
upperback -1.35453 1.62862 2.97667
thorax -10.32 0.769037 3.37651
lowerneck -4.2228 2.32004 -1.5948
upperneck 8.29563 3.13259 -4.17018
head 4.36515 1.38871 -1.23573
lclavicle -3.64394e-15 -3.11211e-14 0
lhumerus -19.0347 -56.0742 96.7229
lradius 120.451 0 0
lwrist 24.4607 0 0
lhand -27.5889 61.884 0
lfingers 7.12502 0 0
lthumb -0.98883 -175.84 0
rclavicle -3.64394e-15 -3.11211e-14 0
rhumerus -7.49584 35.811 -71.1921
rradius 108.364 0 0
rwrist -27.0129 0 0
rhand -3.63393 -27.0831 0
rfingers 7.12502 0 0
rthumb 22.0028 -63.5448 0
